<?xml version="1.0" encoding="UTF-8"?><svg xmlns="http://www.w3.org/2000/svg" xmlns:xlink="http://www.w3.org/1999/xlink" fill-opacity="1" color-rendering="auto" color-interpolation="auto" text-rendering="auto" stroke="black" stroke-linecap="square" width="510" stroke-miterlimit="10" shape-rendering="auto" stroke-opacity="1" fill="black" stroke-dasharray="none" font-weight="normal" stroke-width="1" height="319" font-family="'Dialog'" font-style="normal" stroke-linejoin="miter" font-size="12px" stroke-dashoffset="0" image-rendering="auto">
  <!--Generated by ySVG 2.5-->
  <defs id="genericDefs"/>
  <g>
    <defs id="defs1">
      <clipPath clipPathUnits="userSpaceOnUse" id="clipPath1">
        <path d="M0 0 L510 0 L510 319 L0 319 L0 0 Z"/>
      </clipPath>
      <clipPath clipPathUnits="userSpaceOnUse" id="clipPath2">
        <path d="M115 -6 L625 -6 L625 313 L115 313 L115 -6 Z"/>
      </clipPath>
    </defs>
    <g fill="white" text-rendering="geometricPrecision" shape-rendering="geometricPrecision" transform="translate(-115,6)" stroke="white">
      <rect x="115" width="510" height="319" y="-6" clip-path="url(#clipPath2)" stroke="none"/>
    </g>
    <g fill="rgb(255,204,0)" text-rendering="geometricPrecision" shape-rendering="geometricPrecision" transform="matrix(1,0,0,1,-115,6)" stroke="rgb(255,204,0)">
      <path d="M133 125 L216.6999 125 L226 164 L216.6999 203 L133 203 L142.3001 164 Z" fill-rule="evenodd" clip-path="url(#clipPath2)" stroke="none"/>
    </g>
    <g text-rendering="geometricPrecision" stroke-miterlimit="1.45" shape-rendering="geometricPrecision" transform="matrix(1,0,0,1,-115,6)" stroke-linecap="butt">
      <path fill="none" d="M133 125 L216.6999 125 L226 164 L216.6999 203 L133 203 L142.3001 164 Z" fill-rule="evenodd" clip-path="url(#clipPath2)"/>
      <text x="157.4473" font-size="14px" y="169.291" clip-path="url(#clipPath2)" font-family="sans-serif" stroke="none" font-weight="bold" xml:space="preserve">Pakiet</text>
    </g>
    <g fill="rgb(255,204,0)" text-rendering="geometricPrecision" shape-rendering="geometricPrecision" transform="matrix(1,0,0,1,-115,6)" stroke="rgb(255,204,0)">
      <path d="M345 125 L461.1 125 L474 164 L461.1 203 L345 203 L357.9 164 Z" fill-rule="evenodd" clip-path="url(#clipPath2)" stroke="none"/>
    </g>
    <g text-rendering="geometricPrecision" stroke-miterlimit="1.45" shape-rendering="geometricPrecision" transform="matrix(1,0,0,1,-115,6)" stroke-linecap="butt">
      <path fill="none" d="M345 125 L461.1 125 L474 164 L461.1 203 L345 203 L357.9 164 Z" fill-rule="evenodd" clip-path="url(#clipPath2)"/>
      <text x="366.0576" font-size="14px" y="152.8027" clip-path="url(#clipPath2)" font-family="sans-serif" stroke="none" font-weight="bold" xml:space="preserve">Deployment</text>
      <text x="360.8931" font-size="14px" y="169.291" clip-path="url(#clipPath2)" font-family="sans-serif" stroke="none" font-weight="bold" xml:space="preserve">na platformie</text>
      <text x="378.8237" font-size="14px" y="185.7793" clip-path="url(#clipPath2)" font-family="sans-serif" stroke="none" font-weight="bold" xml:space="preserve">testowej</text>
    </g>
    <g fill="rgb(255,204,0)" text-rendering="geometricPrecision" shape-rendering="geometricPrecision" transform="matrix(1,0,0,1,-115,6)" stroke="rgb(255,204,0)">
      <path d="M239 125 L322.7 125 L332 164 L322.7 203 L239 203 L248.3 164 Z" fill-rule="evenodd" clip-path="url(#clipPath2)" stroke="none"/>
    </g>
    <g text-rendering="geometricPrecision" stroke-miterlimit="1.45" shape-rendering="geometricPrecision" transform="matrix(1,0,0,1,-115,6)" stroke-linecap="butt">
      <path fill="none" d="M239 125 L322.7 125 L332 164 L322.7 203 L239 203 L248.3 164 Z" fill-rule="evenodd" clip-path="url(#clipPath2)"/>
      <text x="265.6929" font-size="14px" y="169.291" clip-path="url(#clipPath2)" font-family="sans-serif" stroke="none" font-weight="bold" xml:space="preserve">Testy</text>
    </g>
    <g fill="rgb(255,204,0)" text-rendering="geometricPrecision" shape-rendering="geometricPrecision" transform="matrix(1,0,0,1,-115,6)" stroke="rgb(255,204,0)">
      <path d="M481 125 L564.7 125 L574 164 L564.7 203 L481 203 L490.3 164 Z" fill-rule="evenodd" clip-path="url(#clipPath2)" stroke="none"/>
    </g>
    <g text-rendering="geometricPrecision" stroke-miterlimit="1.45" shape-rendering="geometricPrecision" transform="matrix(1,0,0,1,-115,6)" stroke-linecap="butt">
      <path fill="none" d="M481 125 L564.7 125 L574 164 L564.7 203 L481 203 L490.3 164 Z" fill-rule="evenodd" clip-path="url(#clipPath2)"/>
      <text x="509.0156" font-size="14px" y="161.0469" clip-path="url(#clipPath2)" font-family="sans-serif" stroke="none" font-weight="bold" xml:space="preserve">Basic</text>
      <text x="507.8159" font-size="14px" y="177.5352" clip-path="url(#clipPath2)" font-family="sans-serif" stroke="none" font-weight="bold" xml:space="preserve">Tests</text>
    </g>
    <g fill="rgb(255,204,0)" text-rendering="geometricPrecision" shape-rendering="geometricPrecision" transform="matrix(1,0,0,1,-115,6)" stroke="rgb(255,204,0)">
      <path d="M239 220 L322.7 220 L332 259 L322.7 298 L239 298 L248.3 259 Z" fill-rule="evenodd" clip-path="url(#clipPath2)" stroke="none"/>
    </g>
    <g text-rendering="geometricPrecision" stroke-miterlimit="1.45" shape-rendering="geometricPrecision" transform="matrix(1,0,0,1,-115,6)" stroke-linecap="butt">
      <path fill="none" d="M239 220 L322.7 220 L332 259 L322.7 298 L239 298 L248.3 259 Z" fill-rule="evenodd" clip-path="url(#clipPath2)"/>
      <text x="265.6929" font-size="14px" y="256.0469" clip-path="url(#clipPath2)" font-family="sans-serif" stroke="none" font-weight="bold" xml:space="preserve">Testy</text>
      <text x="252.9473" font-size="14px" y="272.5352" clip-path="url(#clipPath2)" font-family="sans-serif" stroke="none" font-weight="bold" xml:space="preserve">Instalacji</text>
    </g>
    <g fill="rgb(255,204,0)" text-rendering="geometricPrecision" shape-rendering="geometricPrecision" transform="matrix(1,0,0,1,-115,6)" stroke="rgb(255,204,0)">
      <path d="M130 39 L529.6001 39 L574 73.5 L529.6001 108 L130 108 L174.4001 73.5 Z" fill-rule="evenodd" clip-path="url(#clipPath2)" stroke="none"/>
    </g>
    <g text-rendering="geometricPrecision" stroke-miterlimit="1.45" shape-rendering="geometricPrecision" transform="matrix(1,0,0,1,-115,6)" stroke-linecap="butt">
      <path fill="none" d="M130 39 L529.6001 39 L574 73.5 L529.6001 108 L130 108 L174.4001 73.5 Z" fill-rule="evenodd" clip-path="url(#clipPath2)"/>
      <text x="298.7866" font-size="18px" y="69.7031" clip-path="url(#clipPath2)" font-family="sans-serif" stroke="none" font-weight="bold" xml:space="preserve">Continuous</text>
      <text x="313.7852" font-size="18px" y="90.9023" clip-path="url(#clipPath2)" font-family="sans-serif" stroke="none" font-weight="bold" xml:space="preserve">Delivery</text>
      <text x="584.1016" xml:space="preserve" y="28.5352" clip-path="url(#clipPath2)" font-family="sans-serif" stroke="none"> </text>
      <text x="564.7656" font-size="16px" y="250.0469" clip-path="url(#clipPath2)" font-family="sans-serif" stroke="none" font-weight="bold" xml:space="preserve"> Gate</text>
      <path fill="none" d="M586 39.0122 L586 229.0113" clip-path="url(#clipPath2)"/>
    </g>
  </g>
</svg>
